<?xml version="1.0" encoding="UTF-8"?>
<!DOCTYPE svg PUBLIC "-//W3C//DTD SVG 1.1//EN" "http://www.w3.org/Graphics/SVG/1.1/DTD/svg11.dtd">
<!-- Creator: CorelDRAW X7 -->
<svg xmlns="http://www.w3.org/2000/svg" xml:space="preserve" width="44mm" height="44mm" version="1.1" style="shape-rendering:geometricPrecision; text-rendering:geometricPrecision; image-rendering:optimizeQuality; fill-rule:evenodd; clip-rule:evenodd"
viewBox="0 0 21000 29700"
 xmlns:xlink="http://www.w3.org/1999/xlink">
 <defs>
  <style type="text/css">
   <![CDATA[
    .fil0 {fill:#89B32E}
   ]]>
  </style>
 </defs>
 <g id="图层_x0020_1">
  <metadata id="CorelCorpID_0Corel-Layer"/>
  <path class="fil0" d="M11576 9836l-2625 0 0 6563 6563 0 0 -2625 -3938 0 0 -3938zm-1312 -5250c-5799,0 -10500,4702 -10500,10500 0,5799 4701,10500 10500,10500 5798,0 10500,-4701 10500,-10500 0,-5798 -4702,-10500 -10500,-10500zm0 18375c-4350,0 -7875,-3525 -7875,-7875 0,-4349 3525,-7875 7875,-7875 4349,0 7875,3526 7875,7875 0,4350 -3526,7875 -7875,7875z"/>
 </g>
</svg>
